<svg width="32" height="32" viewBox="0 0 32 32" fill="none" xmlns="http://www.w3.org/2000/svg">
<path d="M16 28C22.6274 28 28 22.6274 28 16C28 9.37258 22.6274 4 16 4C9.37258 4 4 9.37258 4 16C4 22.6274 9.37258 28 16 28Z" fill="#E8E7E7"/>
<path d="M16 27.5C22.3513 27.5 27.5 22.3513 27.5 16C27.5 9.64873 22.3513 4.5 16 4.5C9.64873 4.5 4.5 9.64873 4.5 16C4.5 22.3513 9.64873 27.5 16 27.5Z" stroke="#EC2436"/>
<path d="M11.0342 20.3747C11.4169 19.511 11.9078 18.7041 12.3402 17.8662C13.4531 15.7098 14.5717 13.5575 15.6959 11.4093C15.731 11.3409 15.7761 11.2777 15.8173 11.2114C16.0068 11.3036 15.9517 11.4817 15.9502 11.6287C15.9343 12.8401 15.9137 14.0515 15.8884 15.2627L15.8867 15.3677C15.883 15.3999 15.8751 15.4314 15.8631 15.4614C15.6495 15.7374 15.415 15.9966 15.1617 16.2367C13.9015 17.5603 12.6459 18.8877 11.3949 20.2188C11.3083 20.3114 11.2224 20.4839 11.0342 20.3747Z" fill="#EC2436"/>
<path d="M15.8045 15.4344L15.8056 15.3674C15.8429 15.2635 15.8544 15.1521 15.8392 15.0428C15.8589 13.8818 15.8787 12.7188 15.9044 11.5559C15.906 11.4659 15.8302 11.3326 15.9852 11.2792L19.9649 19.6003C20.1088 19.9028 20.2346 20.212 20.3694 20.5184C20.2088 20.5537 20.1349 20.4254 20.0504 20.3349C19.5407 19.7841 19.0552 19.2117 18.5567 18.6491C18.0332 18.0567 17.5098 17.4633 16.9865 16.8689C16.6058 16.4313 16.2008 16.0143 15.8486 15.5491C15.838 15.5094 15.8232 15.4709 15.8045 15.4344V15.4344Z" fill="#AF2129"/>
<path d="M15.8625 15.4934C16.325 16.0014 16.7925 16.5095 17.2468 17.0293C17.7377 17.5758 18.2063 18.134 18.6881 18.6833C19.1699 19.2327 19.6431 19.7588 20.1251 20.3002C20.1879 20.3915 20.2722 20.4661 20.3704 20.5174L20.4338 20.6715C20.4068 20.6785 20.3785 20.6794 20.3511 20.6741C20.3237 20.6688 20.2978 20.6574 20.2753 20.6408C19.7801 20.3493 19.2848 20.0658 18.7976 19.7775L15.8165 18.0263C15.7827 17.9819 15.7582 17.9312 15.7441 17.8772C15.7301 17.8233 15.7269 17.767 15.7348 17.7118C15.7456 17.0745 15.7564 16.4368 15.7673 15.7988C15.7613 15.7441 15.7666 15.6887 15.783 15.6362C15.7994 15.5836 15.8265 15.535 15.8625 15.4934V15.4934Z" fill="#481819"/>
<path d="M11.0342 20.3737C11.1335 20.4184 11.1808 20.3392 11.2358 20.2841C12.1588 19.2995 13.0768 18.3148 14.0038 17.3303C14.5925 16.7081 15.1961 16.0962 15.7937 15.4792C15.842 15.6306 15.851 15.7919 15.8198 15.9478C15.7962 16.6316 15.8385 17.3175 15.7579 17.9993L12.6676 19.6693C12.1588 19.944 11.6503 20.2215 11.142 20.5016C11.0926 20.5288 11.0412 20.5479 11.0088 20.5113C10.9764 20.4748 11.0125 20.4154 11.0342 20.3737Z" fill="#8B191D"/>
<path d="M15.9832 11.2792C15.8966 11.3727 15.9306 11.4884 15.9288 11.5954L15.87 15.0544C15.8682 15.1604 15.9032 15.278 15.8076 15.3674L15.8724 11.5554C15.8684 11.4393 15.9086 11.3119 15.8183 11.2104C15.8329 11.1746 15.85 11.1109 15.861 11.1111C15.9588 11.1217 15.9543 11.2127 15.9832 11.2792Z" fill="#BF3B43"/>
<path d="M15.7579 17.9983C15.7675 17.1589 15.7795 16.3189 15.7938 15.4782C15.7968 15.4627 15.8007 15.4474 15.8055 15.4324L15.8606 15.4913L15.8175 18.0213L15.7579 17.9983Z" fill="#653334"/>
</svg>
