<svg width="32" height="32" viewBox="0 0 32 32" fill="none" xmlns="http://www.w3.org/2000/svg">
<path d="M32 0H0V32H32V0Z" fill="white"/>
<path d="M23.589 12.7395C23.5486 10.9135 22.785 9.17811 21.4659 7.91471C20.1468 6.65131 18.3801 5.9632 16.554 6.00154C14.7277 5.96293 12.9608 6.65092 11.6415 7.91435C10.3222 9.17778 9.55841 10.9133 9.518 12.7395C9.518 20.6015 6 22.8465 6 22.8465H27.107C27.107 22.8465 23.589 20.6015 23.589 12.7395Z" stroke="black" stroke-width="1.5" stroke-linecap="round" stroke-linejoin="round"/>
<path d="M18.486 25.9955C18.2896 26.3341 18.0078 26.6152 17.6686 26.8105C17.3294 27.0059 16.9449 27.1087 16.5535 27.1087C16.1621 27.1087 15.7776 27.0059 15.4384 26.8105C15.0992 26.6152 14.8174 26.3341 14.621 25.9955" stroke="#EC2436" stroke-width="1.5" stroke-linecap="round" stroke-linejoin="round"/>
</svg>
