<svg width="32" height="32" viewBox="0 0 32 32" fill="none" xmlns="http://www.w3.org/2000/svg">
<path d="M32 0H0V32H32V0Z" fill="white"/>
<path d="M5.03018 28.5H27.0267" stroke="#EC2436" stroke-width="1.5" stroke-linecap="round"/>
<path d="M26.3448 8.39999H5.65517C4.96957 8.39999 4.41379 8.93725 4.41379 9.59999V22.4C4.41379 23.0627 4.96957 23.6 5.65517 23.6H26.3448C27.0304 23.6 27.5862 23.0627 27.5862 22.4V9.59999C27.5862 8.93725 27.0304 8.39999 26.3448 8.39999Z" stroke="black" stroke-width="1.5"/>
<path d="M11.7578 18.353V18.228H11.6328H8.91903V13V12.875H8.79403H8H7.875V13V19V19.125H8H11.6328H11.7578V19V18.353ZM13.3813 19.125H13.5063V19V13V12.875H13.3813H12.5914H12.4664V13V19V19.125H12.5914H13.3813ZM18.524 12.875H18.435L18.4059 12.9591L16.8128 17.5659L15.2275 12.9593L15.1985 12.875H15.1093H14.2494H14.07L14.1322 13.0433L16.3497 19.0433L16.3799 19.125H16.467H17.1664H17.2534L17.2836 19.0434L19.5052 13.0434L19.5676 12.875H19.388H18.524ZM23.5804 16.3516H23.7054V16.2266V15.5797V15.4547H23.5804H21.1093V13.7761H23.9589H24.0839V13.6511V13V12.875H23.9589H20.1944H20.0694V13V19V19.125H20.1944H24H24.125V19V18.353V18.228H24H21.1093V16.3516H23.5804Z" fill="#EC2436" stroke="#EC2436" stroke-width="0.25"/>
<path d="M27 12C29.2091 12 31 10.2091 31 8C31 5.79086 29.2091 4 27 4C24.7909 4 23 5.79086 23 8C23 10.2091 24.7909 12 27 12Z" fill="#EC2436" fill-opacity="0.5"/>
<path d="M27 10C28.1046 10 29 9.10457 29 8C29 6.89543 28.1046 6 27 6C25.8954 6 25 6.89543 25 8C25 9.10457 25.8954 10 27 10Z" fill="#EC2436"/>
</svg>
