<svg width="32" height="32" viewBox="0 0 32 32" fill="none" xmlns="http://www.w3.org/2000/svg">
<path d="M32 0H0V32H32V0Z" fill="white"/>
<path d="M19.52 18H18.853C17.9404 18.4209 16.9475 18.6389 15.9425 18.6389C14.9375 18.6389 13.9446 18.4209 13.032 18H12.365C10.9426 18.0005 9.57862 18.5657 8.57266 19.5712C7.5667 20.5768 7.00106 21.9406 7 23.363V25.024C7.00026 25.5321 7.20221 26.0193 7.56148 26.3785C7.92074 26.7378 8.40793 26.9397 8.916 26.94H22.969C23.4771 26.9397 23.9643 26.7378 24.3235 26.3785C24.6828 26.0193 24.8847 25.5321 24.885 25.024V23.363C24.8839 21.9406 24.3183 20.5768 23.3123 19.5712C22.3064 18.5657 20.9424 18.0005 19.52 18Z" stroke="black" stroke-width="1.5"/>
<path d="M18.949 14.3588C18.1086 14.9203 17.1207 15.22 16.11 15.22C14.7547 15.22 13.455 14.6816 12.4967 13.7233C11.5384 12.765 11 11.4653 11 10.11C11 9.09934 11.2997 8.11137 11.8612 7.27104C12.4227 6.4307 13.2208 5.77574 14.1545 5.38898C15.0882 5.00221 16.1157 4.90102 17.1069 5.09819C18.0982 5.29536 19.0087 5.78204 19.7233 6.49669C20.438 7.21133 20.9246 8.12185 21.1218 9.11309C21.319 10.1043 21.2178 11.1318 20.831 12.0655C20.4443 12.9992 19.7893 13.7973 18.949 14.3588Z" stroke="black" stroke-width="1.5"/>
</svg>
