<svg width="32" height="32" viewBox="0 0 32 32" fill="none" xmlns="http://www.w3.org/2000/svg">
<path d="M28.8133 27.5956L22.2622 21L21 22.2533L27.5511 28.8489C27.6334 28.9318 27.7312 28.9976 27.839 29.0427C27.9467 29.0878 28.0623 29.1112 28.1791 29.1116C28.2959 29.112 28.4116 29.0894 28.5197 29.0451C28.6277 29.0008 28.726 28.9356 28.8089 28.8533C28.8918 28.771 28.9576 28.6732 29.0027 28.5655C29.0478 28.4577 29.0712 28.3422 29.0716 28.2254C29.072 28.1086 29.0494 27.9928 29.0051 27.8848C28.9608 27.7767 28.8956 27.6784 28.8133 27.5956Z" fill="#CC0000"/>
<path d="M14.5156 4.48889C16.441 4.48713 18.3237 5.05649 19.9255 6.12493C21.5273 7.19337 22.7763 8.7129 23.5143 10.4913C24.2524 12.2697 24.4464 14.227 24.0718 16.1156C23.6973 18.0043 22.771 19.7395 21.4101 21.1016C20.0492 22.4637 18.3149 23.3916 16.4266 23.7679C14.5383 24.1442 12.5808 23.9519 10.8017 23.2155C9.02266 22.4791 7.502 21.2315 6.43209 19.6307C5.36218 18.0299 4.79111 16.1477 4.79111 14.2222C4.80278 11.6459 5.83078 9.17832 7.65169 7.35575C9.4726 5.53317 11.9393 4.50292 14.5156 4.48889V4.48889ZM14.5156 2.66667C12.2301 2.66667 9.99593 3.34439 8.09563 4.61413C6.19533 5.88387 4.71422 7.6886 3.83961 9.8001C2.965 11.9116 2.73616 14.235 3.18203 16.4766C3.62791 18.7182 4.72847 20.7772 6.34454 22.3932C7.96061 24.0093 10.0196 25.1099 12.2612 25.5557C14.5027 26.0016 16.8262 25.7728 18.9377 24.8982C21.0492 24.0236 22.8539 22.5424 24.1236 20.6421C25.3934 18.7418 26.0711 16.5077 26.0711 14.2222C26.0711 11.1575 24.8537 8.2183 22.6866 6.05121C20.5195 3.88412 17.5803 2.66667 14.5156 2.66667Z" fill="black"/>
</svg>
