<svg width="32" height="32" viewBox="0 0 32 32" fill="none" xmlns="http://www.w3.org/2000/svg">
<path d="M32 0H0V32H32V0Z" fill="white"/>
<path d="M26.9592 8.41837H6.04082C5.34765 8.41837 4.78572 8.98029 4.78572 9.67347V23.0612C4.78572 23.7544 5.34765 24.3163 6.04082 24.3163H26.9592C27.6524 24.3163 28.2143 23.7544 28.2143 23.0612V9.67347C28.2143 8.98029 27.6524 8.41837 26.9592 8.41837Z" stroke="black"/>
<path d="M5.87346 28.5H26.5324" stroke="#EC2436" stroke-linecap="round"/>
<path d="M8.84366 18.353H11.8599V19H8V13H8.84366V18.353Z" fill="#EC2436"/>
<path d="M13.7177 19H12.8784V13H13.7177V19Z" fill="#EC2436"/>
<path d="M17.3633 17.9492L19.1818 13H20.0998L17.7393 19H16.9961L14.64 13H15.5536L17.3633 17.9492Z" fill="#EC2436"/>
<path d="M24.5541 16.2266H21.7958V18.353H25V19H20.9565V13H24.9563V13.6511H21.7958V15.5797H24.5541V16.2266Z" fill="#EC2436"/>
</svg>
