<svg width="24" height="24" viewBox="0 0 24 24" fill="none" xmlns="http://www.w3.org/2000/svg">
<path d="M3.05176e-05 11.3333C-0.00455782 13.0932 0.406604 14.8292 1.20003 16.4C2.14079 18.2823 3.58703 19.8656 5.37676 20.9724C7.1665 22.0792 9.22904 22.6659 11.3334 22.6667C13.0932 22.6713 14.8292 22.2601 16.4 21.4667L24 24L21.4667 16.4C22.2601 14.8292 22.6713 13.0932 22.6667 11.3333C22.6659 9.22901 22.0792 7.16647 20.9724 5.37673C19.8656 3.587 18.2824 2.14076 16.4 1.2C14.8292 0.406575 13.0932 -0.0045885 11.3334 -1.62843e-07H10.6667C7.88757 0.153322 5.26264 1.32635 3.29451 3.29448C1.32638 5.26261 0.153353 7.88754 3.05176e-05 10.6667V11.3333Z" fill="#CC0000"/>
</svg>
