<svg width="26" height="32" viewBox="0 0 26 32" fill="none" xmlns="http://www.w3.org/2000/svg">
<path d="M24.1274 14.1352C24.4347 14.3402 24.6867 14.6178 24.861 14.9435C25.0353 15.2692 25.1265 15.6328 25.1265 16.0022C25.1265 16.3716 25.0353 16.7353 24.861 17.061C24.6867 17.3867 24.4347 17.6643 24.1274 17.8692L3.48267 31.6271C3.1448 31.8508 2.75268 31.9788 2.34792 31.9976C1.94316 32.0164 1.54087 31.9252 1.18376 31.7337C0.826641 31.5423 0.528024 31.2577 0.319605 30.9102C0.111186 30.5628 0.000741485 30.1653 -5.28115e-06 29.7601L-5.28115e-06 2.24433C-6.6082e-05 1.83807 0.110162 1.43941 0.318922 1.0909C0.527682 0.742377 0.82714 0.457069 1.18535 0.26541C1.54356 0.0737515 1.94708 -0.0170672 2.35286 0.00264307C2.75864 0.0223534 3.15145 0.151853 3.4894 0.377327L24.1274 14.1352Z" fill="black"/>
</svg>
