<svg xmlns="http://www.w3.org/2000/svg" width="9.494" height="9.444" viewBox="0 0 9.494 9.444"><defs><style>.a{fill:#ec2436;}.b{fill:#af2129;}.c{fill:#481819;}.d{fill:#8b191d;}.e{fill:#bf3b43;}.f{fill:#653334;}</style></defs><g transform="translate(11.494 67) rotate(90)"><g transform="translate(-67 2)"><path class="a" d="M0,9.242c.368-.87.845-1.685,1.263-2.53Q2.877,3.45,4.508.2c.034-.069.078-.133.118-.2.191.089.139.268.14.415q.007,1.817,0,3.634c0,.035,0,.071,0,.105a.358.358,0,0,1-.022.094,6.81,6.81,0,0,1-.688.787Q2.2,7.052.358,9.08C.273,9.174.19,9.348,0,9.242Z" transform="translate(0.042 0.101)"/><path class="b" d="M0,4.157V4.09a.681.681,0,0,0,.028-.325c0-1.161,0-2.324.006-3.487C.034.188-.044.056.11,0L4.23,8.251c.149.3.28.607.42.911-.16.038-.236-.089-.322-.178-.519-.542-1.014-1.106-1.522-1.66-.534-.583-1.068-1.166-1.6-1.753-.388-.431-.8-.841-1.16-1.3C.028,4.236.027,4.191,0,4.157Z" transform="translate(4.727 0.166)"/><path class="c" d="M.09,0C.561.5,1.037,1,1.5,1.512,2,2.05,2.478,2.6,2.969,3.141s.973,1.064,1.464,1.592a.681.681,0,0,0,.249.213l.066.153a.188.188,0,0,1-.159-.028c-.5-.283-1-.558-1.492-.838q-1.505-.849-3.01-1.7A.422.422,0,0,1,0,2.22Q0,1.264,0,.307A.4.4,0,0,1,.09,0Z" transform="translate(4.696 4.381)"/><path class="d" d="M.042,4.974c.1.043.146-.037.2-.093.906-1,1.807-2,2.717-3C3.537,1.249,4.13.627,4.717,0a.937.937,0,0,1,.034.468c-.012.684.042,1.369-.027,2.052L1.663,4.242q-.756.425-1.511.853c-.049.028-.1.048-.133.012S.021,5.016.042,4.974Z" transform="translate(0 4.368)"/><path class="e" d="M.166.166C.081.261.117.376.117.483c0,1.153,0,2.306,0,3.459,0,.106.037.223-.057.314q0-1.906,0-3.812C.054.328.092.2,0,.1.014.064.03,0,.041,0,.139.009.136.1.166.166Z" transform="translate(4.669)"/><path class="f" d="M.007,2.566Q0,1.307,0,.046A.412.412,0,0,1,.011,0L.067.058v2.53Z" transform="translate(4.717 4.321)"/></g></g></svg>