<svg xmlns="http://www.w3.org/2000/svg" width="30.655" height="30.817" viewBox="0 0 30.655 30.817"><defs><style>.a{fill:#ec2436;}.b{fill:#af2129;}.c{fill:#481819;}.d{fill:#8b191d;}.e{fill:#bf3b43;}.f{fill:#653334;}</style></defs><path class="a" d="M1.49,33.547c1.2-2.824,2.742-5.47,4.1-8.211Q10.83,14.749,16.124,4.193c.111-.224.255-.431.383-.643.619.29.451.869.453,1.348q.023,5.9.007,11.8c0,.113,0,.229-.006.341a1.162,1.162,0,0,1-.073.306A22.106,22.106,0,0,1,14.656,19.9q-6.02,6.543-12,13.128C2.375,33.327,2.106,33.892,1.49,33.547Z" transform="translate(-1.353 -3.224)"/><path class="b" d="M166.92,19.344v-.217a2.21,2.21,0,0,0,.092-1.054c.007-3.769,0-7.544.019-11.317,0-.3-.255-.723.246-.905q6.684,13.39,13.372,26.783c.484.97.909,1.969,1.362,2.955-.52.123-.768-.289-1.044-.577-1.686-1.759-3.292-3.592-4.94-5.388-1.732-1.893-3.467-3.784-5.183-5.691-1.259-1.4-2.6-2.731-3.764-4.214C167.012,19.6,167.007,19.454,166.92,19.344Z" transform="translate(-151.576 -5.312)"/><path class="c" d="M166.112,154.69c1.53,1.634,3.073,3.257,4.585,4.908,1.6,1.747,3.166,3.532,4.76,5.288q2.361,2.6,4.752,5.167a2.21,2.21,0,0,0,.807.692q.109.249.215.5a.61.61,0,0,1-.517-.092c-1.607-.919-3.232-1.81-4.845-2.72q-4.886-2.757-9.77-5.53a1.369,1.369,0,0,1-.276-1q-.009-3.105,0-6.211A1.313,1.313,0,0,1,166.112,154.69Z" transform="translate(-150.577 -140.47)"/><path class="d" d="M.137,170.376c.327.14.474-.119.643-.3,2.942-3.243,5.865-6.5,8.819-9.73,1.882-2.057,3.807-4.076,5.712-6.112a3.041,3.041,0,0,1,.109,1.518c-.038,2.22.135,4.444-.086,6.661L5.4,168q-2.454,1.379-4.905,2.769c-.16.092-.309.157-.431.039C-.086,170.664.068,170.513.137,170.376Z" transform="translate(0 -140.052)"/><path class="e" d="M165.39.538c-.276.308-.159.684-.16,1.03-.008,3.743,0,7.486-.01,11.229,0,.345.119.724-.184,1.019q0-6.188-.012-12.374c0-.376.125-.785-.174-1.121.045-.112.1-.323.134-.32C165.3.027,165.29.327,165.39.538Z" transform="translate(-149.696 0)"/><path class="f" d="M166.563,160.919q-.011-4.088-.023-8.181a1.337,1.337,0,0,1,.035-.148l.184.189,0,8.214Z" transform="translate(-151.231 -138.563)"/></svg>