<svg xmlns="http://www.w3.org/2000/svg" width="11.829" height="19.169" viewBox="0 0 11.829 19.169"><defs><style>.a{fill:#ef1f2e;fill-rule:evenodd;}</style></defs><g transform="translate(-0.018 -0.046)"><g transform="translate(0.018 0.046)"><path class="a" d="M10.175.19.328,7.964A.663.663,0,0,0,.4,9L4.919,11.74l-4,6.515a.611.611,0,0,0,.888.814l9.921-8.144a.663.663,0,0,0-.074-1.037L7.214,7.3,11.138,1A.64.64,0,0,0,10.175.19Zm-2,3.184L1.809,8.408,6.621,11.37,3.956,15.664l6.293-5.183L5.511,7.742Z" transform="translate(-0.115 -0.046)"/></g></g></svg>